<?xml version="1.0" standalone="no"?>
<!DOCTYPE svg PUBLIC "-//W3C//DTD SVG 20010904//EN"
 "http://www.w3.org/TR/2001/REC-SVG-20010904/DTD/svg10.dtd">
<svg version="1.0" xmlns="http://www.w3.org/2000/svg"
 width="500.000000pt" height="500.000000pt" viewBox="0 0 500.000000 500.000000"
 preserveAspectRatio="xMidYMid meet">

<g transform="translate(0.000000,500.000000) scale(0.100000,-0.100000)"
fill="#000000" stroke="none">
<path d="M517 2883 c-4 -3 -7 -109 -7 -235 l0 -228 155 0 155 0 0 50 0 50
-100 0 -100 0 0 185 0 185 -48 0 c-27 0 -52 -3 -55 -7z"/>
<path d="M1081 2661 c-50 -127 -91 -233 -91 -236 0 -3 25 -5 55 -5 55 0 55 0
71 40 l16 40 94 0 93 0 12 -40 12 -40 59 0 c32 0 58 3 57 8 0 4 -42 108 -92
232 l-92 225 -52 3 -51 3 -91 -230z m198 -63 c1 -15 -8 -18 -59 -18 -33 0 -60
2 -60 4 0 2 14 41 31 87 l32 82 28 -69 c15 -38 28 -77 28 -86z"/>
<path d="M1660 2721 c0 -187 8 -220 59 -264 43 -36 95 -50 158 -44 66 7 113
37 145 92 22 37 23 51 23 210 l0 170 -52 3 -53 3 0 -161 0 -162 -29 -29 c-31
-31 -53 -35 -96 -19 -44 17 -55 62 -55 225 l0 145 -50 0 -50 0 0 -169z"/>
<path d="M2290 2656 l0 -236 55 0 55 0 0 70 0 70 35 0 c32 0 37 -5 75 -70 l41
-70 60 0 c33 0 58 3 56 8 -2 4 -23 40 -47 79 l-42 73 32 26 c17 15 36 39 42
53 17 44 11 119 -12 155 -34 56 -77 70 -222 74 l-128 4 0 -236z m213 133 c42
-11 61 -43 51 -85 -8 -33 -32 -44 -98 -44 l-56 0 0 70 0 70 33 0 c17 0 49 -5
70 -11z"/>
<path d="M2944 2663 c-49 -124 -90 -230 -92 -235 -2 -4 22 -8 53 -8 l57 0 15
40 16 40 92 0 93 0 16 -40 16 -40 56 0 c49 0 55 2 50 18 -4 9 -46 115 -93 235
l-87 217 -51 0 -51 0 -90 -227z m175 4 c17 -43 31 -80 31 -82 0 -3 -27 -5 -60
-5 -41 0 -60 4 -60 13 0 12 53 158 56 154 1 -1 16 -37 33 -80z"/>
<path d="M1200 2120 l0 -70 1100 0 1100 0 0 70 0 70 -1100 0 -1100 0 0 -70z"/>
<path d="M2630 1625 l0 -235 155 0 155 0 0 50 0 50 -105 0 -105 0 0 185 0 185
-50 0 -50 0 0 -235z"/>
<path d="M3142 1688 c3 -146 6 -179 22 -211 49 -100 208 -128 302 -55 53 42
64 86 64 271 l0 167 -49 0 -49 0 -3 -158 c-3 -128 -7 -163 -21 -184 -33 -50
-122 -45 -147 8 -7 15 -11 86 -11 179 l0 155 -56 0 -55 0 3 -172z"/>
<path d="M3750 1855 c0 -3 33 -55 74 -117 l75 -111 -80 -118 -79 -119 63 0 64
0 47 75 c26 41 51 75 54 75 4 0 28 -34 54 -75 l47 -75 61 0 c33 0 60 2 60 5 0
3 -34 57 -76 120 l-77 115 72 108 c39 59 71 111 71 115 0 4 -25 7 -55 7 l-54
0 -52 -76 -51 -76 -50 76 -51 76 -58 0 c-33 0 -59 -2 -59 -5z"/>
</g>
</svg>
